<svg width="93.000000" height="93.000000" viewBox="0 0 93 93" fill="none" xmlns="http://www.w3.org/2000/svg" xmlns:xlink="http://www.w3.org/1999/xlink">
	<desc>
			Created with Pixso.
	</desc>
	<defs/>
	<rect id="Rectangle 280" x="1.000000" y="1.000000" rx="9.000000" width="91.000000" height="91.000000" fill="#ECEEF2" fill-opacity="0"/>
	<rect id="Rectangle 280" x="1.000000" y="1.000000" rx="9.000000" width="91.000000" height="91.000000" stroke="#182B61" stroke-opacity="1.000000" stroke-width="2.000000"/>
	<path id="Vector" d="M24.4892 33.9719L24.4892 34.9958C24.4863 36.6333 25.8542 37.9534 27.4892 37.9031L27.4892 39.9226C26.1654 39.9502 26.1798 41.8467 27.4892 41.9167L27.4892 43.9224C26.165 43.9502 26.18 45.8474 27.4899 45.917C27.6084 52.6826 36.9091 54.1519 39.1546 47.8611C40.6533 48.2368 41.0346 46.031 39.4892 45.8894L39.4892 43.9031C40.8041 43.8677 40.8057 41.9585 39.4892 41.8894L39.4892 37.9031C40.9502 37.948 42.2048 36.8962 42.4453 35.4993C47.1983 33.6042 49.0313 26.4146 45.615 22.553C42.1289 18.406 35.2367 19.6052 32.2353 24.033C28.3805 21.9426 23.086 22.5146 21.3769 26.5552C20.2309 29.3303 21.7598 32.6919 24.4892 33.9719ZM33.4892 49.9031C31.4041 49.9031 29.7069 48.2942 29.5249 46.2561L37.1384 47.5249C36.5145 48.9231 35.1169 49.9031 33.4892 49.9031ZM37.4892 45.5562L29.4892 44.2227L29.4892 42.25L37.4892 43.5835L37.4892 45.5562ZM37.4892 41.5562L29.4892 40.2227L29.4892 37.9031L37.4892 37.9031L37.4892 41.5562ZM23.2334 27.2986C24.7772 24.0352 29.0597 24.3955 32.0819 26.2034C33.637 27.2107 35.5444 28.5439 37.5791 28.4719C38.8487 28.4717 41.6457 27.7856 40.6954 26.1311C40.3564 25.6936 39.7304 25.615 39.292 25.9519C37.53 27.1396 35.5122 26.0979 33.9851 25.0454C36.3008 21.772 41.4498 20.771 44.0899 23.8481C46.7619 26.8196 45.0207 32.7832 41.1902 33.8342C40.6854 33.9834 40.4365 34.4941 40.4892 34.9958C40.4892 35.4963 40.082 35.9031 39.582 35.9031L27.3965 35.9031C26.8965 35.9031 26.4892 35.4963 26.4892 34.9958L26.4892 33.8098C26.6436 33.2605 26.4945 32.6174 25.9023 32.4094C23.8019 31.6926 22.4123 29.3542 23.2334 27.2986Z" fill="#182B61" fill-opacity="1.000000" fill-rule="nonzero"/>
	<path id="Vector" d="M46.7227 43.3567C47.334 44.4646 48.3008 45.3743 49.4893 45.9719C49.4342 47.0518 49.4978 48.3027 50.3653 49.0691L51.7569 56.7253C52.3168 59.7874 56.8189 59.634 57.1661 56.5388C57.1661 56.5388 57.8282 50.573 57.8282 50.573C57.9097 49.7861 59.0901 49.7837 59.1719 50.5725L59.834 56.5388C60.178 59.6316 64.6864 59.7883 65.2422 56.7258C65.2422 56.7258 66.6407 49.0413 66.6407 49.0413C67.0645 48.6179 67.3438 48.0833 67.4454 47.4993C72.1983 45.6033 74.0314 38.4148 70.6151 34.553C67.1305 30.4048 60.2368 31.6055 57.2354 36.033C55.3575 35.1287 53.5714 34.7273 51.9346 34.8367C47.5243 35.0413 44.5241 39.4951 46.7227 43.3567ZM48.2334 39.2986C49.7961 36.051 53.9771 36.3694 57.082 38.2034C58.637 39.2107 60.5445 40.5439 62.5792 40.4719C63.8479 40.4717 66.6463 39.7856 65.6955 38.1311C65.3575 37.6946 64.7295 37.6155 64.292 37.9519C62.5301 39.1396 60.5121 38.0979 58.9852 37.0454C62.8985 31.6975 71.4328 33.6726 70.2842 40.8628C69.875 43.1985 68.2305 45.1965 66.1905 45.8342C65.7735 45.9651 65.4893 46.3513 65.4893 46.7888C65.6177 47.5918 64.8611 47.6787 64.7353 48.3406C64.7354 48.3406 63.2744 56.3689 63.2744 56.3689C63.1339 57.186 61.9059 57.1467 61.8223 56.3181C61.8223 56.3181 61.1602 50.3513 61.1602 50.3513C61.0088 48.9944 59.8653 47.9714 58.5 47.9714C57.1348 47.9714 55.9912 48.9944 55.8399 50.3518L55.1778 56.3181C55.0961 57.1421 53.8641 57.1899 53.7246 56.3684C53.7246 56.3684 52.2686 48.3616 52.2686 48.3616C52.2046 47.7869 51.4401 47.6099 51.4893 46.9958C51.4917 46.8359 51.4662 45.7275 51.5215 45.5935C51.6475 45.0984 51.3809 44.5876 50.9024 44.4094C48.802 43.6926 47.4124 41.3545 48.2334 39.2986Z" fill="#182B61" fill-opacity="1.000000" fill-rule="nonzero"/>
	<path id="Vector" d="M47.3096 47.9717C48.6228 47.95 48.6249 45.9937 47.3095 45.9717C47.3096 45.9717 43 45.9717 43 45.9717C41.6868 45.9934 41.6846 47.9497 43.0001 47.9717C43 47.9717 47.3096 47.9717 47.3096 47.9717Z" fill="#182B61" fill-opacity="1.000000" fill-rule="nonzero"/>
	<path id="Vector" d="M71.6328 46.1689C70.345 45.8811 69.9064 47.8025 71.168 48.1143C73.4248 48.6528 75 50.6499 75 52.9717L75 64.9717C75 67.7285 72.7568 69.9717 70 69.9717L24 69.9717C21.2432 69.9717 19 67.7285 19 64.9717L19 52.9717C19 50.2148 21.2432 47.9717 24 47.9717L25.5596 47.9717C26.1123 47.9717 26.5596 47.5239 26.5596 46.9717C26.5596 46.4194 26.1123 45.9717 25.5596 45.9717L24 45.9717C20.1406 45.9717 17 49.1118 17 52.9717L17 64.9717C17 68.8315 20.1406 71.9717 24 71.9717L70 71.9717C73.8594 71.9717 77 68.8315 77 64.9717L77 52.9717C77 49.7202 74.793 46.9229 71.6328 46.1689Z" fill="#182B61" fill-opacity="1.000000" fill-rule="nonzero"/>
	<path id="Vector" d="M47.9951 61.5527C48.3364 61.99 48.9663 62.0645 49.3985 61.7271C51.0153 60.1304 46.9343 58.1614 45.588 58.293C44.2385 58.0764 40.0649 59.741 41.5526 61.4614C41.9648 61.8296 42.5977 61.7949 42.9648 61.3828C44.2451 59.8708 46.8095 59.9695 47.9951 61.5527Z" fill="#182B61" fill-opacity="1.000000" fill-rule="nonzero"/>
	<path id="Vector" d="M32.7754 58.2341C33.1165 58.6721 33.7464 58.7463 34.1787 58.4089C35.7956 56.8132 31.714 54.8425 30.3682 54.9744C29.0207 54.7671 24.8441 56.4189 26.3329 58.1428C26.7451 58.5115 27.3769 58.4768 27.7451 58.0642C29.0323 56.554 31.5883 56.6509 32.7754 58.2341Z" fill="#182B61" fill-opacity="1.000000" fill-rule="nonzero"/>
	<path id="Vector" d="M70.7754 56.2344C71.1165 56.6724 71.7464 56.7466 72.1787 56.4089C73.7953 54.813 69.7144 52.8425 68.3672 52.9746C67.0763 52.9622 66.9723 54.8997 68.3008 54.9734C69.2461 55.0051 70.1943 55.4888 70.7754 56.2344Z" fill="#182B61" fill-opacity="1.000000" fill-rule="nonzero"/>
	<path id="Vector" d="M40.333 53.1431C40.7461 53.5117 41.3769 53.4766 41.7451 53.0645C43.0265 51.5498 45.5888 51.6521 46.7754 53.2344C47.1165 53.6724 47.7464 53.7466 48.1787 53.4092C49.7955 51.8132 45.714 49.8428 44.3682 49.9746C43.0205 49.7695 38.844 51.4182 40.333 53.1431Z" fill="#182B61" fill-opacity="1.000000" fill-rule="nonzero"/>
	<path id="Vector" d="M59 65.9717C57.6861 65.9937 57.6852 67.9497 59.0001 67.9717L61 67.9717C61.5528 67.9717 62 67.5239 62 66.9717C62 66.4194 61.5528 65.9717 61 65.9717L59 65.9717Z" fill="#182B61" fill-opacity="1.000000" fill-rule="nonzero"/>
	<path id="Vector" d="M47 67.9717L49 67.9717C50.3142 67.9497 50.3147 65.9937 49 65.9717L47 65.9717C45.6862 65.9937 45.6852 67.9497 47 67.9717Z" fill="#182B61" fill-opacity="1.000000" fill-rule="nonzero"/>
	<path id="Vector" d="M23 65.9717C21.6861 65.9937 21.6852 67.9497 23.0001 67.9717L25 67.9717C25.5528 67.9717 26 67.5239 26 66.9717C26 66.4194 25.5528 65.9717 25 65.9717L23 65.9717Z" fill="#182B61" fill-opacity="1.000000" fill-rule="nonzero"/>
	<path id="Vector" d="M29 65.9717C27.6861 65.9937 27.6852 67.9497 29.0001 67.9717L31 67.9717C31.5528 67.9717 32 67.5239 32 66.9717C32 66.4194 31.5528 65.9717 31 65.9717L29 65.9717Z" fill="#182B61" fill-opacity="1.000000" fill-rule="nonzero"/>
	<path id="Vector" d="M35 67.9717L37 67.9717C38.3142 67.9497 38.3147 65.9937 37 65.9717L35 65.9717C33.6862 65.9937 33.6852 67.9497 35 67.9717Z" fill="#182B61" fill-opacity="1.000000" fill-rule="nonzero"/>
	<path id="Vector" d="M53 65.9717C51.6861 65.9937 51.6852 67.9497 53.0001 67.9717L55 67.9717C55.5528 67.9717 56 67.5239 56 66.9717C56 66.4194 55.5528 65.9717 55 65.9717L53 65.9717Z" fill="#182B61" fill-opacity="1.000000" fill-rule="nonzero"/>
	<path id="Vector" d="M41 67.9717L43 67.9717C44.3142 67.9497 44.3147 65.9937 43 65.9717L41 65.9717C39.6862 65.9937 39.6852 67.9497 41 67.9717Z" fill="#182B61" fill-opacity="1.000000" fill-rule="nonzero"/>
	<path id="Vector" d="M65 65.9717C63.6861 65.9937 63.6852 67.9497 65.0001 67.9717L67 67.9717C67.5528 67.9717 68 67.5239 68 66.9717C68 66.4194 67.5528 65.9717 67 65.9717L65 65.9717Z" fill="#182B61" fill-opacity="1.000000" fill-rule="nonzero"/>
</svg>
