<svg width="93.000000" height="93.000000" viewBox="0 0 93 93" fill="none" xmlns="http://www.w3.org/2000/svg" xmlns:xlink="http://www.w3.org/1999/xlink">
	<desc>
			Created with Pixso.
	</desc>
	<defs/>
	<rect id="Rectangle 284" x="1.000000" y="1.000000" rx="9.000000" width="91.000000" height="91.000000" fill="#ECEEF2" fill-opacity="0"/>
	<rect id="Rectangle 284" x="1.000000" y="1.000000" rx="9.000000" width="91.000000" height="91.000000" stroke="#182B61" stroke-opacity="1.000000" stroke-width="2.000000"/>
	<path id="Vector" d="M22.1906 31.0283C23.5912 31.0283 24.833 32.3748 24.833 34.2534L24.833 39.3403C24.833 40.3523 24.1906 41.0032 23.5435 41.0032L20.8358 41.0032C20.1831 41.0032 19.5463 40.3523 19.5463 39.3403L19.5463 34.2524C19.5453 32.3748 20.7947 31.0283 22.1906 31.0283ZM70.9187 31.0244C72.3193 31.0244 73.5705 32.3708 73.5705 34.2534L73.5705 39.3354C73.5705 40.3477 72.9281 40.9985 72.2811 40.9985L69.5733 40.9985C68.9206 40.9985 68.2838 40.3477 68.2838 39.3354L68.2838 34.2524C68.2838 32.3708 69.5238 31.0244 70.9187 31.0244ZM30.736 29.312C32.9433 29.312 34.7043 31.0815 34.7043 33.3232L34.7043 39.3384C34.7043 40.5503 33.7706 41.4841 32.5838 41.4841L28.8872 41.4841C27.7061 41.4841 26.7724 40.5503 26.7724 39.3384L26.7724 33.3232C26.7724 31.0815 28.5278 29.312 30.736 29.312ZM62.3752 29.3074C64.5834 29.3074 66.3379 31.0815 66.3379 33.3186L66.3379 39.3347C66.3379 40.5457 65.4098 41.4795 64.2221 41.4795L60.5273 41.4795C59.3406 41.4795 58.4115 40.5457 58.4115 39.3347L58.4115 33.3186C58.4125 31.0815 60.1669 29.3074 62.3752 29.3074ZM41.1143 28.8313C43.6046 28.8313 45.5822 30.8191 45.5822 33.3242L45.5822 39.9285C45.5822 41.304 44.5177 42.3748 43.1508 42.3748L39.0807 42.3748C37.7146 42.3748 36.6446 41.304 36.6446 39.9285L36.6446 33.3242C36.6446 30.8181 38.6194 28.8313 41.1143 28.8313ZM52.0025 28.8257C54.4918 28.8257 56.4722 30.8154 56.4722 33.3196L56.4722 39.9238C56.4722 41.3 55.4021 42.3711 54.0361 42.3711L49.966 42.3711C48.5981 42.3711 47.5299 41.3 47.5299 39.9238L47.5299 33.3186C47.529 30.8154 49.5076 28.8257 52.0025 28.8257ZM46.5551 19.9448C52.5272 19.9448 58.1295 20.4072 62.6758 21.1028C67.2277 21.7966 70.7637 22.7656 72.422 23.606C74.353 24.5798 75.1653 26.1113 75.1653 28.7817C75.1653 29.9143 75.1065 30.9255 74.9571 31.8303C74.1933 30.2205 72.7143 29.0823 70.9197 29.0823C69.6125 29.0823 68.4649 29.6855 67.6423 30.6389C66.6647 28.708 64.675 27.3708 62.3752 27.3708C60.3415 27.3708 58.5432 28.4165 57.4787 29.9973C56.3555 28.1394 54.3218 26.8899 52.0025 26.8899C49.7027 26.8899 47.6989 28.1196 46.5654 29.9487C45.4319 28.1196 43.4141 26.8945 41.1143 26.8945C38.7884 26.8945 36.7567 28.1394 35.6324 29.9973C34.5736 28.4175 32.7725 27.3765 30.736 27.3765C28.4353 27.3765 26.4456 28.708 25.4735 30.6445C24.6519 29.6912 23.5043 29.0879 22.1897 29.0879C20.4006 29.0879 18.9179 30.2253 18.1588 31.8359C18.0075 30.9255 17.9449 29.9199 17.9449 28.7817C17.9449 26.1113 18.7573 24.5798 20.6873 23.606C22.3456 22.7666 25.8862 21.7966 30.4344 21.1028C34.9816 20.4072 40.584 19.9448 46.5551 19.9448ZM46.5551 18C40.4813 18 34.8005 18.4707 30.1422 19.1868C25.4885 19.9011 21.9039 20.8152 19.8227 21.8657C17.2792 23.1494 16 25.6443 16 28.7817C16 31.4167 16.2764 33.7854 17.5995 35.7407L17.5995 39.3394C17.5995 41.2451 18.9702 42.9482 20.8339 42.9482L23.5417 42.9482C24.4371 42.9482 25.2102 42.5486 25.7789 41.9314C26.5231 42.8362 27.6323 43.429 28.8854 43.429L32.582 43.429C33.6763 43.429 34.6632 42.9863 35.3934 42.2778C36.1712 43.498 37.5288 44.3198 39.0797 44.3198L43.1498 44.3198C44.5318 44.3198 45.7465 43.6587 46.5495 42.6511C47.3563 43.6587 48.5813 44.3152 49.9642 44.3152L54.0342 44.3152C55.5805 44.3152 56.9372 43.4934 57.7141 42.2729C58.4489 42.9827 59.4358 43.4243 60.5264 43.4243L64.2212 43.4243C65.4761 43.4243 66.5844 42.8313 67.3286 41.9268C67.9028 42.5439 68.6759 42.9443 69.5714 42.9443L72.2792 42.9443C74.1373 42.9443 75.5089 41.2422 75.5089 39.3354L75.5089 35.7417C76.8367 33.7864 77.1084 31.4175 77.1084 28.7827C77.1084 25.6453 75.8301 23.1504 73.2913 21.8665C71.2091 20.8162 67.6199 19.9021 62.9653 19.1877C58.3098 18.4707 52.629 18 46.5551 18Z" fill="#182B61" fill-opacity="1.000000" fill-rule="evenodd"/>
	<path id="Vector" d="M18.1364 60.3376C18.831 60.9214 19.6882 61.2817 20.6453 61.2817C21.185 61.2817 21.6574 61.1313 22.0701 60.927C22.8096 62.2051 24.0888 63.0857 25.6061 63.0857C26.749 63.0857 27.4484 62.8765 28.1935 62.0857C28.8788 64.2827 30.8574 65.7234 33.2748 65.7234C35.1077 65.7234 36.4597 64.8384 37.3159 63.8953C37.9621 65.334 39.752 66.8999 42.1302 66.8999C44.1919 66.8999 45.8698 65.7432 46.5551 64.5564C47.2405 65.7432 48.9184 66.8999 50.981 66.8999C53.3592 66.8999 55.1482 65.334 55.8008 63.8953C56.6505 64.8384 58.0035 65.7234 59.8364 65.7234C62.2529 65.7234 64.237 64.2827 64.9187 62.0857C65.6628 62.8774 66.3669 63.0857 67.5051 63.0857C69.0224 63.0857 70.3025 62.2061 71.0411 60.927C71.4584 61.1313 71.9253 61.2817 72.465 61.2817C73.4239 61.2817 74.2792 60.9224 74.9748 60.3376C75.1065 61.2043 75.1644 62.1567 75.1644 63.2173C75.1644 65.886 74.353 67.4192 72.4211 68.3921C70.7637 69.2334 67.2268 70.196 62.6749 70.8972C58.1286 71.5911 52.5263 72.0542 46.5542 72.0542C40.5821 72.0542 34.9798 71.5911 30.4335 70.8972C25.8853 70.196 22.3447 69.2334 20.6864 68.3921C18.7573 67.4192 17.944 65.887 17.944 63.2173C17.9459 62.1567 18.0038 61.2043 18.1364 60.3376ZM49.3264 54.2983L52.6346 54.2983C53.6449 54.2983 54.4386 55.0911 54.4386 56.1125L54.4386 61.4854C54.4386 63.4265 52.9119 64.9521 50.981 64.9521C49.05 64.9521 47.529 63.4265 47.529 61.4854L47.529 56.1125C47.529 55.092 48.3105 54.2983 49.3264 54.2983ZM40.4766 54.2983L43.7838 54.2983C44.8007 54.2983 45.5822 55.0911 45.5822 56.1125L45.5822 61.4854C45.5822 63.4265 44.0612 64.9521 42.1302 64.9521C40.1993 64.9521 38.6727 63.4265 38.6727 61.4854L38.6727 56.1125C38.6727 55.092 39.4644 54.2983 40.4766 54.2983ZM58.1828 53.1218L61.491 53.1218C62.5069 53.1218 63.2893 53.9082 63.2893 54.9314L63.2893 60.3098C63.2893 62.251 61.7683 63.7822 59.8373 63.7822C57.9064 63.7822 56.3742 62.251 56.3742 60.3098L56.3742 54.9314C56.3732 53.9082 57.1725 53.1218 58.1828 53.1218ZM31.6212 53.1218L34.9275 53.1218C35.9387 53.1218 36.737 53.9082 36.737 54.9314L36.737 60.3098C36.737 62.251 35.2057 63.7822 33.2748 63.7822C31.3439 63.7822 29.821 62.251 29.821 60.3098L29.821 54.9314C29.821 53.9082 30.609 53.1218 31.6212 53.1218ZM66.294 52.4458L68.7217 52.4458C69.2474 52.4458 69.7815 52.9707 69.7815 53.8223L69.7815 58.3638C69.7815 59.9941 68.7021 61.1416 67.5051 61.1416C66.3146 61.1416 65.2343 59.9941 65.2343 58.3638L65.2343 53.8223C65.2343 52.9707 65.7693 52.4458 66.294 52.4458ZM24.3895 52.4458L26.8162 52.4458C27.3419 52.4458 27.876 52.9707 27.876 53.8223L27.876 58.3638C27.876 59.9941 26.8022 61.1416 25.6052 61.1416C24.4082 61.1416 23.3279 59.9941 23.3279 58.3638L23.3279 53.8223C23.3288 52.9707 23.8638 52.4458 24.3895 52.4458ZM71.2512 51.2583L73.677 51.2583C74.2027 51.2583 74.7386 51.7783 74.7386 52.6299L74.7386 56.5591C74.7386 58.1892 73.663 59.3462 72.4659 59.3462C72.014 59.3462 71.7218 59.1509 71.7218 58.3628L71.7218 53.8213C71.7218 52.8923 71.3567 52.0276 70.7693 51.4094C70.915 51.3115 71.0793 51.2583 71.2512 51.2583ZM19.4342 51.2583L21.86 51.2583C22.0309 51.2583 22.1953 51.3115 22.3465 51.4104C21.7536 52.0286 21.3895 52.8931 21.3895 53.8223L21.3895 58.3638C21.3895 59.1519 21.0981 59.3472 20.6453 59.3472C19.4538 59.3472 18.3735 58.1902 18.3735 56.5598L18.3735 52.6309C18.3735 51.7783 18.9095 51.2583 19.4342 51.2583ZM19.4342 49.3142C17.7068 49.3142 16.4286 50.8811 16.4286 52.6309L16.4286 56.5598C16.4286 57.1006 16.5257 57.6206 16.6816 58.1108C16.141 59.6589 16 61.3657 16 63.2183C16 66.3538 17.2792 68.8486 19.8227 70.1343C21.9039 71.1838 25.4885 72.0989 30.1422 72.8132C34.8005 73.5283 40.4813 74 46.5551 74C52.629 74 58.3098 73.5283 62.9681 72.8132C67.6218 72.0989 71.211 71.1829 73.2941 70.1343C75.8329 68.8496 77.1112 66.3547 77.1112 63.2183C77.1112 61.3611 76.9711 59.6589 76.4305 58.1108C76.5855 57.6216 76.6826 57.1006 76.6826 56.5598L76.6826 52.6309C76.6826 50.8811 75.4044 49.3142 73.677 49.3142L71.2512 49.3142C70.3118 49.3142 69.4659 49.8044 68.9318 50.5056L66.295 50.5056C65.1773 50.5056 64.3257 51.05 63.8112 51.9836C63.1548 51.4114 62.4294 51.1826 61.4919 51.1826L58.1837 51.1826C56.7299 51.1826 55.5432 51.9221 54.9269 53.1377C54.5217 52.7773 53.5879 52.3545 52.6365 52.3545L49.3283 52.3545C48.3712 52.3545 47.248 52.7737 46.557 53.5991C45.8716 52.7727 44.7437 52.3545 43.7857 52.3545L40.4785 52.3545C39.5251 52.3545 38.5914 52.7783 38.1927 53.1377C37.5699 51.9221 36.3832 51.1826 34.9294 51.1826L31.623 51.1826C30.6846 51.1826 29.9648 51.4114 29.3018 51.9836C28.7864 51.05 27.9367 50.5056 26.8172 50.5056L24.1813 50.5056C23.6463 49.8054 22.8003 49.3142 21.8619 49.3142L19.4342 49.3142Z" fill="#182B61" fill-opacity="1.000000" fill-rule="nonzero"/>
</svg>
